<svg xmlns="http://www.w3.org/2000/svg" viewBox="0 0 170 130" width="170" height="130">
  <!-- screw corners -->
  <rect x="8" y="8" width="8" height="8" rx="1" fill="#4a7fd4" opacity="0.5"/>
  <line x1="10" y1="12" x2="14" y2="12" stroke="#1a3f80" stroke-width="1.5"/>
  <line x1="12" y1="10" x2="12" y2="14" stroke="#1a3f80" stroke-width="1.5"/>
  <rect x="154" y="8" width="8" height="8" rx="1" fill="#4a7fd4" opacity="0.5"/>
  <line x1="156" y1="12" x2="160" y2="12" stroke="#1a3f80" stroke-width="1.5"/>
  <line x1="158" y1="10" x2="158" y2="14" stroke="#1a3f80" stroke-width="1.5"/>
  <rect x="8" y="114" width="8" height="8" rx="1" fill="#4a7fd4" opacity="0.5"/>
  <line x1="10" y1="118" x2="14" y2="118" stroke="#1a3f80" stroke-width="1.5"/>
  <line x1="12" y1="116" x2="12" y2="120" stroke="#1a3f80" stroke-width="1.5"/>
  <rect x="154" y="114" width="8" height="8" rx="1" fill="#4a7fd4" opacity="0.5"/>
  <line x1="156" y1="118" x2="160" y2="118" stroke="#1a3f80" stroke-width="1.5"/>
  <line x1="158" y1="116" x2="158" y2="120" stroke="#1a3f80" stroke-width="1.5"/>

  <!-- progress ring -->
  <circle cx="85" cy="65" r="32" fill="#1a3f80"/>
  <circle cx="85" cy="65" r="28" fill="none" stroke="#4a7fd4" stroke-width="5"
    stroke-dasharray="115 62" stroke-linecap="round" transform="rotate(-90 85 65)"/>

  <!-- pixel play triangle -->
  <rect x="79" y="53" width="4" height="4" fill="#f0c040"/>
  <rect x="79" y="57" width="4" height="4" fill="#f0c040"/>
  <rect x="83" y="57" width="4" height="4" fill="#f0c040"/>
  <rect x="79" y="61" width="4" height="4" fill="#f0c040"/>
  <rect x="83" y="61" width="4" height="4" fill="#f0c040"/>
  <rect x="87" y="61" width="4" height="4" fill="#f0c040"/>
  <rect x="79" y="65" width="4" height="4" fill="#f0c040"/>
  <rect x="83" y="65" width="4" height="4" fill="#f0c040"/>
  <rect x="87" y="65" width="4" height="4" fill="#f0c040"/>
  <rect x="91" y="65" width="4" height="4" fill="#f0c040"/>
  <rect x="79" y="69" width="4" height="4" fill="#f0c040"/>
  <rect x="83" y="69" width="4" height="4" fill="#f0c040"/>
  <rect x="87" y="69" width="4" height="4" fill="#f0c040"/>
  <rect x="79" y="73" width="4" height="4" fill="#f0c040"/>
  <rect x="83" y="73" width="4" height="4" fill="#f0c040"/>
  <rect x="79" y="77" width="4" height="4" fill="#f0c040"/>
</svg>
